<?xml version="1.0" encoding="utf-8"?>
<!-- Svg Vector Icons : http://www.onlinewebfonts.com/icon -->
<!DOCTYPE svg PUBLIC "-//W3C//DTD SVG 1.1//EN" "http://www.w3.org/Graphics/SVG/1.1/DTD/svg11.dtd">
<svg version="1.1" xmlns="http://www.w3.org/2000/svg" xmlns:xlink="http://www.w3.org/1999/xlink" x="0px" y="0px" viewBox="0 0 1000 1000" enable-background="new 0 0 1000 1000" xml:space="preserve">
<metadata> Svg Vector Icons : http://www.onlinewebfonts.com/icon </metadata>
<g><path d="M953.6,164l-51.7-6.4c-0.9,0-1.8,0.3-2.6,0.5l-56.8-17c-1.4-12.6-2.3-19.9-2.3-19.9c-16.1-99.1-44.7-113.4-85.9-111H248.4c-61,0-68.6,22.7-85.9,111c0,0-0.9,7-2.4,19.1l-59.4,17.8c-0.9-0.2-1.7-0.5-2.6-0.5L46.4,164c-6.6,1.3-11.8,5.3-11.8,11.8v124.9c0,6.5,5.2,10.8,11.8,11.8l51.7,4.5c0.7,0,1.4-0.3,2.1-0.4l40.9,20.2c-2.3,34.3-3.8,67.6-3.7,95.3c0.3,61,0.3,135.8,0.2,240.2c0,0.5-13.5,0.9-19.1,1.4c-1.5,0.1-2.4,2.1-2.4,3c-0.1,84.5-0.2,204.6-0.2,204.6c0,25.1,8.6,39.2,22.8,47.1v46.1c0,8.5,6.9,15.4,15.4,15.4h97.7c8.5,0,15.4-6.9,15.4-15.4v-36h465.4v36c0,8.5,6.9,15.4,15.4,15.4h97.7c8.5,0,15.4-6.9,15.4-15.4V930c15.9-7.6,25.5-21.9,25.5-48.7c0,0,0-119.9,0-204.1c0-1.1-0.8-3.4-2.2-3.5c-5.5-0.5-19.3-1-19.3-1.4V435.6c0-27.7-1.8-63-4.4-99.8l39-19.3c0.7,0.1,1.3,0.4,2.1,0.4l51.7-4.5c6.6-1,11.8-5.3,11.8-11.8V175.8C965.4,169.3,960.2,165.3,953.6,164z M142.5,317.4l-32.6-16.1V174.2l47.9-14.3C153.5,197.5,147,257.7,142.5,317.4z M238.3,887.2h-77.6c-5.9,0-10.7-4.8-10.7-10.7V752.3c0-5.9,4.8-10.7,10.7-10.7h48.9c5.9,0,9.4,5.2,10.7,10.7c0,0,26.7,116.2,28,122.2C250.1,883.3,244.2,887.2,238.3,887.2z M240.7,418.6c-11.2-1.2-77.6-8.3-81.7-49.8c-3.6-35.6,10.7-204.4,10.7-204.4c0-5.9,4.8-10.7,10.6-10.7h636.3c5.9,0,10.7,4.8,10.7,10.7c0,0,16.6,171.8,14.2,204.4c-2.4,32.6-71.7,49.8-85.3,49.8C742.5,418.6,251.9,419.8,240.7,418.6z M701.5,622c-0.7,0.8-3.1,1.5-8,1.5c-173.5,0-203.1,0.5-372,0.5c-5.4,0-8-0.6-8-1.5c0,0-20.6-18.3-16.1-18.3h415.3C717.1,604.2,701.5,622,701.5,622z M701.5,658.8c-0.7,0.8-3.1,1.5-8,1.5c-173.5,0-203.1,0.5-372,0.5c-5.4,0-8-0.6-8-1.5c0,0-20.6-18.3-16.1-18.3h415.3C717.1,641,701.5,658.8,701.5,658.8z M701.5,585.2c-0.7,0.8-3.1,1.5-8,1.5c-173.5,0-203.1,0.5-372,0.5c-5.4,0-8-0.6-8-1.5c0,0-20.6-18.3-16.1-18.3h415.3C717.1,567.4,701.5,585.2,701.5,585.2z M701.5,548.5c-0.7,0.8-3.1,1.5-8,1.5c-173.5,0-203.1,0.5-372,0.5c-5.4,0-8-0.6-8-1.5c0,0-20.6-18.3-16.1-18.3h415.3C717.1,530.7,701.5,548.5,701.5,548.5z M712.9,864.6c0,4.2-3.1,7.4-8.1,7.5c-172.3,5.5-239.9,6.3-412.4,0c-5.5-0.2-8.1-3.4-8.1-7.5l-6.1-29.9c0-4.2,1.7-7.6,8.1-7.6c76.1,0,350-3.2,427.4-3.2c6,0,8.1,3.4,8.1,7.6L712.9,864.6z M734.7,779.9c0,4.6-3.4,8.1-8.9,8.3c-189.9,6-264.4,6.9-454.5,0c-6.1-0.2-8.9-3.7-8.9-8.3l-6.8-33c0-4.6,1.9-8.3,8.9-8.3c83.8,0,385.7-3.6,471-3.6c6.6,0,8.9,3.7,8.9,8.3L734.7,779.9z M844.7,872.7c0,5.9-4.8,10.7-10.7,10.7h-77.6c-5.9,0-11.8-3.9-10.1-12.6c1.2-6,28-122.2,28-122.2c1.3-5.5,4.8-10.7,10.7-10.7H834c5.9,0,10.7,4.8,10.7,10.7V872.7z M890.1,301.3l-30.7,15.2c-4.5-58.5-10.7-118.1-14.8-155.8l45.4,13.6V301.3z"/></g>
</svg>