<?xml version="1.0" encoding="UTF-8" standalone="no"?>
<!-- Svg Vector Icons : http://www.onlinewebfonts.com/icon -->

<svg
   xmlns:dc="http://purl.org/dc/elements/1.1/"
   xmlns:cc="http://creativecommons.org/ns#"
   xmlns:rdf="http://www.w3.org/1999/02/22-rdf-syntax-ns#"
   xmlns:svg="http://www.w3.org/2000/svg"
   xmlns="http://www.w3.org/2000/svg"
   xmlns:sodipodi="http://sodipodi.sourceforge.net/DTD/sodipodi-0.dtd"
   xmlns:inkscape="http://www.inkscape.org/namespaces/inkscape"
   version="1.1"
   x="0px"
   y="0px"
   viewBox="0 0 20 22"
   enable-background="new 0 0 1000 1000"
   xml:space="preserve"
   id="svg2"
   inkscape:version="0.91 r13725"
   sodipodi:docname="marker-truck.svg"
   width="20"
   height="22"><defs
     id="defs12" /><sodipodi:namedview
     pagecolor="#ffffff"
     bordercolor="#666666"
     borderopacity="1"
     objecttolerance="10"
     gridtolerance="10"
     guidetolerance="10"
     inkscape:pageopacity="0"
     inkscape:pageshadow="2"
     inkscape:window-width="1391"
     inkscape:window-height="876"
     id="namedview10"
     showgrid="true"
     inkscape:zoom="30.208"
     inkscape:cx="10.746137"
     inkscape:cy="8.7122623"
     inkscape:window-x="49"
     inkscape:window-y="24"
     inkscape:window-maximized="1"
     inkscape:current-layer="svg2"
     inkscape:snap-nodes="false"
     showguides="true"
     inkscape:guide-bbox="true"><inkscape:grid
       type="xygrid"
       id="grid4172" /><sodipodi:guide
       position="13,5"
       orientation="0,1"
       id="guide4174" /><sodipodi:guide
       position="14,3"
       orientation="0,1"
       id="guide4176" /><sodipodi:guide
       position="10,18"
       orientation="1,0"
       id="guide4178" /></sodipodi:namedview><metadata
     id="metadata4"> Svg Vector Icons : http://www.onlinewebfonts.com/icon <rdf:RDF><cc:Work
     rdf:about=""><dc:format>image/svg+xml</dc:format><dc:type
       rdf:resource="http://purl.org/dc/dcmitype/StillImage" /><dc:title></dc:title></cc:Work></rdf:RDF></metadata><g
     id="g4180"><path
       sodipodi:nodetypes="sscssss"
       inkscape:connector-curvature="0"
       id="path4140"
       d="m 20,9.765599 c 0,3.132741 -1.886392,5.221552 -3.991541,7.277602 C 14.220044,18.789891 11.854206,20.662076 9.9886401,22 8.0699023,20.554361 5.7706589,18.796648 3.9882542,17.001958 2,15 1.8584828e-7,12.46229 1.8584828e-7,9.765599 1.8584828e-7,4.3722096 4.4771532,-3.8e-7 10,-3.8e-7 c 5.522847,0 10,4.37220998 10,9.76559938 z"
       style="opacity:1;fill:#1e824c;fill-opacity:1;stroke:none;stroke-width:2;stroke-linecap:round;stroke-linejoin:round;stroke-miterlimit:4;stroke-dasharray:none;stroke-dashoffset:0;stroke-opacity:1" /><circle
       r="7.5"
       cy="9.5318394"
       cx="10.000632"
       id="path4170"
       style="opacity:1;fill:#ffffff;fill-opacity:1;stroke:none;stroke-width:2;stroke-linecap:round;stroke-linejoin:round;stroke-miterlimit:4;stroke-dasharray:none;stroke-dashoffset:0;stroke-opacity:1" /><g
       style="opacity:1"
       transform="matrix(0.01074458,0,0,0.01020473,4.589496,3.8431459)"
       id="g6"><path
         inkscape:connector-curvature="0"
         id="path8"
         d="m 953.6,164 -51.7,-6.4 c -0.9,0 -1.8,0.3 -2.6,0.5 l -56.8,-17 c -1.4,-12.6 -2.3,-19.9 -2.3,-19.9 C 824.1,22.1 795.5,7.8 754.3,10.2 l -505.9,0 c -61,0 -68.6,22.7 -85.9,111 0,0 -0.9,7 -2.4,19.1 l -59.4,17.8 c -0.9,-0.2 -1.7,-0.5 -2.6,-0.5 L 46.4,164 c -6.6,1.3 -11.8,5.3 -11.8,11.8 l 0,124.9 c 0,6.5 5.2,10.8 11.8,11.8 l 51.7,4.5 c 0.7,0 1.4,-0.3 2.1,-0.4 l 40.9,20.2 c -2.3,34.3 -3.8,67.6 -3.7,95.3 0.3,61 0.3,135.8 0.2,240.2 0,0.5 -13.5,0.9 -19.1,1.4 -1.5,0.1 -2.4,2.1 -2.4,3 -0.1,84.5 -0.2,204.6 -0.2,204.6 0,25.1 8.6,39.2 22.8,47.1 l 0,46.1 c 0,8.5 6.9,15.4 15.4,15.4 l 97.7,0 c 8.5,0 15.4,-6.9 15.4,-15.4 l 0,-36 465.4,0 0,36 c 0,8.5 6.9,15.4 15.4,15.4 l 97.7,0 c 8.5,0 15.4,-6.9 15.4,-15.4 l 0,-44.5 c 15.9,-7.6 25.5,-21.9 25.5,-48.7 0,0 0,-119.9 0,-204.1 0,-1.1 -0.8,-3.4 -2.2,-3.5 -5.5,-0.5 -19.3,-1 -19.3,-1.4 l 0,-236.7 c 0,-27.7 -1.8,-63 -4.4,-99.8 l 39,-19.3 c 0.7,0.1 1.3,0.4 2.1,0.4 l 51.7,-4.5 c 6.6,-1 11.8,-5.3 11.8,-11.8 l 0,-124.8 c 0.1,-6.5 -5.1,-10.5 -11.7,-11.8 z m -811.1,153.4 -32.6,-16.1 0,-127.1 47.9,-14.3 c -4.3,37.6 -10.8,97.8 -15.3,157.5 z m 95.8,569.8 -77.6,0 c -5.9,0 -10.7,-4.8 -10.7,-10.7 l 0,-124.2 c 0,-5.9 4.8,-10.7 10.7,-10.7 l 48.9,0 c 5.9,0 9.4,5.2 10.7,10.7 0,0 26.7,116.2 28,122.2 1.8,8.8 -4.1,12.7 -10,12.7 z m 2.4,-468.6 c -11.2,-1.2 -77.6,-8.3 -81.7,-49.8 -3.6,-35.6 10.7,-204.4 10.7,-204.4 0,-5.9 4.8,-10.7 10.6,-10.7 l 636.3,0 c 5.9,0 10.7,4.8 10.7,10.7 0,0 16.6,171.8 14.2,204.4 -2.4,32.6 -71.7,49.8 -85.3,49.8 -13.7,0 -504.3,1.2 -515.5,0 z M 701.5,622 c -0.7,0.8 -3.1,1.5 -8,1.5 -173.5,0 -203.1,0.5 -372,0.5 -5.4,0 -8,-0.6 -8,-1.5 0,0 -20.6,-18.3 -16.1,-18.3 l 415.3,0 c 4.4,0 -11.2,17.8 -11.2,17.8 z m 0,36.8 c -0.7,0.8 -3.1,1.5 -8,1.5 -173.5,0 -203.1,0.5 -372,0.5 -5.4,0 -8,-0.6 -8,-1.5 0,0 -20.6,-18.3 -16.1,-18.3 l 415.3,0 c 4.4,0 -11.2,17.8 -11.2,17.8 z m 0,-73.6 c -0.7,0.8 -3.1,1.5 -8,1.5 -173.5,0 -203.1,0.5 -372,0.5 -5.4,0 -8,-0.6 -8,-1.5 0,0 -20.6,-18.3 -16.1,-18.3 l 415.3,0 c 4.4,0 -11.2,17.8 -11.2,17.8 z m 0,-36.7 c -0.7,0.8 -3.1,1.5 -8,1.5 -173.5,0 -203.1,0.5 -372,0.5 -5.4,0 -8,-0.6 -8,-1.5 0,0 -20.6,-18.3 -16.1,-18.3 l 415.3,0 c 4.4,0 -11.2,17.8 -11.2,17.8 z m 11.4,316.1 c 0,4.2 -3.1,7.4 -8.1,7.5 -172.3,5.5 -239.9,6.3 -412.4,0 -5.5,-0.2 -8.1,-3.4 -8.1,-7.5 l -6.1,-29.9 c 0,-4.2 1.7,-7.6 8.1,-7.6 76.1,0 350,-3.2 427.4,-3.2 6,0 8.1,3.4 8.1,7.6 l -8.9,33.1 z m 21.8,-84.7 c 0,4.6 -3.4,8.1 -8.9,8.3 -189.9,6 -264.4,6.9 -454.5,0 -6.1,-0.2 -8.9,-3.7 -8.9,-8.3 l -6.8,-33 c 0,-4.6 1.9,-8.3 8.9,-8.3 83.8,0 385.7,-3.6 471,-3.6 6.6,0 8.9,3.7 8.9,8.3 l -9.7,36.6 z m 110,92.8 c 0,5.9 -4.8,10.7 -10.7,10.7 l -77.6,0 c -5.9,0 -11.8,-3.9 -10.1,-12.6 1.2,-6 28,-122.2 28,-122.2 1.3,-5.5 4.8,-10.7 10.7,-10.7 l 49,0 c 5.9,0 10.7,4.8 10.7,10.7 l 0,124.1 z m 45.4,-571.4 -30.7,15.2 C 854.9,258 848.7,198.4 844.6,160.7 l 45.4,13.6 0,127 z" /></g></g></svg>