<svg xmlns="http://www.w3.org/2000/svg" width="20" height="22" xmlns:v="https://vecta.io/nano"><path fill="#b22222" d="M20 9.766c0 3.133-1.886 5.222-3.992 7.278C14.22 18.8 11.854 20.662 10 22l-6-4.998C2 15 0 12.462 0 9.766 0 4.372 4.477 0 10 0s10 4.372 10 9.766z"/><circle fill="#fff" cx="10.001" cy="9.532" r="7.5"/><path d="M14.836 5.517l-.556-.065c-.01 0-.02.003-.028.005l-.6-.173-.025-.203c-.173-1-.48-1.157-.923-1.133H7.26c-.655 0-.737.232-.923 1.133l-.026.195-.638.182c-.01-.002-.018-.005-.028-.005l-.556.065c-.07.013-.127.054-.127.12v1.275c0 .066.056.1.127.12l.556.046c.008 0 .015-.003.023-.004l.44.206-.04.973.002 2.45c0 .005-.145.01-.205.014-.016.001-.026.02-.026.03l-.002 2.088c0 .256.092.4.245.48v.47c0 .087.074.157.165.157h1.05c.1 0 .165-.07.165-.157v-.367h5v.367c0 .087.074.157.165.157h1.05c.1 0 .165-.07.165-.157v-.454c.17-.078.274-.223.274-.497v-2.083c0-.01-.01-.035-.024-.036l-.207-.014V8.288l-.047-1.018.42-.197c.008.001.014.004.023.004l.556-.046c.07-.01.127-.054.127-.12V5.637c.001-.066-.055-.107-.126-.12zM6.12 7.082l-.35-.164V5.62l.515-.146L6.12 7.08zm1.03 5.815h-.834c-.063 0-.115-.05-.115-.1V11.52c0-.06.052-.1.115-.1h.525c.063 0 .1.053.115.1l.3 1.247c.02.1-.044.13-.107.13zm.026-4.782c-.12-.012-.834-.085-.878-.508-.04-.363.115-2.086.115-2.086 0-.06.052-.1.114-.1h6.837c.063 0 .115.05.115.1l.153 2.086c-.026.333-.77.508-.917.508h-5.54zm4.95 2.076c-.008.008-.033.015-.086.015l-3.997.005c-.058 0-.086-.006-.086-.015 0 0-.22-.187-.173-.187h4.462c.047 0-.12.182-.12.182zm0 .376c-.008.008-.033.015-.086.015l-3.997.005c-.058 0-.086-.006-.086-.015 0 0-.22-.187-.173-.187h4.462c.047 0-.12.182-.12.182zm0-.75c-.008.008-.033.015-.086.015l-3.997.005c-.058 0-.086-.006-.086-.015 0 0-.22-.187-.173-.187h4.462c.047 0-.12.182-.12.182zm0-.375c-.008.008-.033.015-.086.015l-3.997.005c-.058 0-.086-.006-.086-.015 0 0-.22-.187-.173-.187h4.462c.047 0-.12.182-.12.182zm.122 3.226c0 .043-.033.076-.087.077H7.73c-.06-.002-.087-.035-.087-.077l-.066-.305c0-.043.018-.078.087-.078l4.592-.033c.064 0 .087.035.087.078l-.096.338zm.234-.864c0 .047-.037.083-.096.085h-4.88c-.066-.002-.096-.038-.096-.085l-.073-.337c0-.047.02-.085.096-.085l5.06-.037c.07 0 .096.038.096.085l-.104.374zm1.182.947c0 .06-.052.1-.115.1h-.834c-.063 0-.127-.04-.1-.13l.3-1.247c.014-.056.052-.1.115-.1h.527c.063 0 .115.05.115.1v1.266zm.488-5.83l-.33.155-.16-1.6.488.14v1.296z"/></svg>